<?xml version="1.0" encoding="utf-8"?>
<!-- Generator: Adobe Illustrator 20.0.0, SVG Export Plug-In . SVG Version: 6.00 Build 0)  -->
<svg version="1.1" id="Layer_1" xmlns="http://www.w3.org/2000/svg" xmlns:xlink="http://www.w3.org/1999/xlink" x="0px" y="0px"
	 width="40px" height="40px" viewBox="0 0 40 40" style="enable-background:new 0 0 40 40;" xml:space="preserve">
<style type="text/css">
	.st0{fill:#00A7FE;}
</style>
<path class="st0" d="M20,4c8.8,0,16,7.2,16,16s-7.2,16-16,16S4,28.8,4,20S11.2,4,20,4 M20,1C9.5,1,1,9.5,1,20s8.5,19,19,19
	s19-8.5,19-19S30.5,1,20,1L20,1z"/>
<path class="st0" d="M19.9,25.6l-7.6-6c-0.7-0.5-0.8-1.5-0.2-2.1c0.5-0.7,1.5-0.8,2.1-0.2l5.7,4.5l6-4.7c0.7-0.5,1.6-0.4,2.1,0.2
	c0.5,0.7,0.4,1.6-0.2,2.1L19.9,25.6z"/>
</svg>
