<?xml version="1.0" encoding="utf-8"?>
<!-- Generator: Adobe Illustrator 20.0.0, SVG Export Plug-In . SVG Version: 6.00 Build 0)  -->
<svg version="1.1" id="Layer_3" xmlns="http://www.w3.org/2000/svg" xmlns:xlink="http://www.w3.org/1999/xlink" x="0px" y="0px"
	 width="1280px" height="1200px" viewBox="0 0 1280 1200" style="enable-background:new 0 0 1280 1200;" xml:space="preserve">
<style type="text/css">
	.st0{fill:#E1EBF0;stroke:#FFFFFF;stroke-miterlimit:10;}
	.st1{fill:#E6FBFF;}
	.st2{fill:#E1EBF0;}
	.st3{fill:#DADFE1;}
	.st4{fill:#FFFFFF;}
	.st5{fill:#D1E8FF;}
</style>
<path class="st0" d="M656.6,792c-0.2-0.1-0.3-0.1-0.5-0.1s-0.3-0.1-0.5-0.1s-0.3,0.1-0.4,0.1c-0.2,0-0.3,0-0.5,0.1L560,847.5
	c-0.6,0.3-0.9,1-0.9,1.6l1,110.3c0,0.5,0.3,0.9,0.6,1.3c0.1,0.1,0.2,0.2,0.3,0.3l0,0l0,0l95.7,53.7c0.6,0.3,1.3,0.3,1.9,0l94.7-55.5
	l0,0l0,0c0.3-0.2,0.5-0.4,0.7-0.7c0,0,0,0,0-0.1s0-0.1,0-0.2c0.1-0.2,0.2-0.4,0.2-0.7l-1-110.3c0-0.7-0.4-1.3-0.9-1.6L656.6,792z
	 M562.8,850.1l91-53.3l0.4,38l0.6,67.9l-91,53.3L562.8,850.1z M657.7,1010.9l-91.9-51.6l90.9-53.3l24.1,13.5l67.8,38.1L657.7,1010.9
	z M750.5,954.3l-79.2-44.4l-12.8-7.2l-1-106l91.9,51.6L750.5,954.3z"/>
<rect x="729.3" y="75.1" transform="matrix(0.7071 -0.7071 0.7071 0.7071 151.996 558.2333)" class="st1" width="41.1" height="41.1"/>
<rect x="202.9" y="967" class="st1" width="41.1" height="41.1"/>
<rect x="841" y="178.4" class="st2" width="3.5" height="500.9"/>
<g>
	
		<rect x="942.8" y="494.6" transform="matrix(0.7071 -0.7071 0.7071 0.7071 -28.8788 924.2535)" class="st3" width="316.9" height="4.8"/>
	<path class="st4" d="M1211.6,385.4l1.3,1.3l-222,222l-1.3-1.3L1211.6,385.4 M1211.6,381.1L985.4,607.3l5.5,5.5l226.2-226.2
		L1211.6,381.1L1211.6,381.1z"/>
</g>
<g>
	
		<rect x="186.7" y="650.5" transform="matrix(0.7071 -0.7071 0.7071 0.7071 -390.4488 359.979)" class="st2" width="105.2" height="1.6"/>
	<path class="st2" d="M275.9,614.2l0.4,0.4l-73.7,73.7l-0.4-0.4L275.9,614.2 M275.9,612.8l-75.1,75.1l1.8,1.8l75.1-75.1L275.9,612.8
		L275.9,612.8z"/>
</g>
<g>
	<path class="st5" d="M190.4,280.1c-6.8-6.8-6.8-18,0-24.8l4.6,4.6c-4.3,4.3-4.3,11.4,0,15.7c4.3,4.3,11.4,4.3,15.7,0l4.6,4.6
		C208.3,287,197.2,287,190.4,280.1z"/>
</g>
<g>
	<path class="st1" d="M39.5,117.6l12.9,7.2c1.9,1.1,2.6,3.5,1.5,5.4c-1.1,1.9-3.5,2.6-5.4,1.5l-12.9-7.2c-1.9-1.1-2.6-3.5-1.5-5.4
		C35.2,117.1,37.6,116.5,39.5,117.6z"/>
</g>
<path class="st5" d="M360.2,90.2c-0.1-0.1-0.6-0.1-0.9-0.1l-177.9,50c-0.2,0.1-0.4,0.2-0.4,0.3v0.1l-46.6,178.9l0,0l0.5,0.5
	l-0.2,0.4l132.4,129.9c0.2,0.2,0.4,0.2,0.5,0.2l0.2-0.1l177.8-49.8c0.2-0.1,0.4-0.3,0.6-0.4c0.1-0.3,0.3-0.5,0.4-0.6L493,221
	c0-0.1,0-0.4-0.3-0.7L360.2,90.2z M182.2,141.2l176.6-49.6L312.6,269l-46.2,13L136,318.8L182.2,141.2z M267.8,449.1L136.3,320
	l176.6-49.6l131.6,129.2L267.8,449.1z M445.3,398.4L313.8,269.2l46.4-177.5L491.6,221L445.3,398.4z"/>
<path class="st2" d="M597,635.1c-0.3,0.5-0.9,0.8-1.5,0.8c-1.1,0-1.9-0.9-1.9-1.9c-0.1-27.1,0.2-54.8,0.5-81.6
	c0.2-21.9,0.5-44.5,0.5-66.8c0-1.1,0.9-1.9,1.9-1.9c1.1,0,1.9,0.9,1.9,1.9c0,22.3-0.3,44.9-0.5,66.8c-0.3,26.8-0.6,54.5-0.5,81.6
	C597.3,634.4,597.2,634.8,597,635.1z"/>
<path class="st2" d="M650.2,721.3c-0.4,0.5-0.9,0.8-1.5,0.8c-1.1,0-1.9-0.9-1.9-1.9l0.1-63.9c0-1.1,0.9-1.9,1.9-1.9
	c1.1,0,1.9,0.9,1.9,1.9l-0.1,63.9C650.6,720.5,650.5,720.9,650.2,721.3z"/>
<g>
	<path class="st5" d="M362.4,731.1l-4.5-4.5c-0.6-0.6-0.7-1.8,0-2.4s1.8-0.7,2.4,0l4.5,4.5c0.6,0.6,0.7,1.8,0,2.4
		C364.1,731.8,363,731.8,362.4,731.1z"/>
</g>
</svg>
