<?xml version="1.0" encoding="utf-8"?>
<!-- Generator: Adobe Illustrator 20.0.0, SVG Export Plug-In . SVG Version: 6.00 Build 0)  -->
<svg version="1.1" id="Layer_2" xmlns="http://www.w3.org/2000/svg" xmlns:xlink="http://www.w3.org/1999/xlink" x="0px" y="0px"
	 width="1280px" height="1200px" viewBox="0 0 1280 1200" style="enable-background:new 0 0 1280 1200;" xml:space="preserve">
<style type="text/css">
	.st0{fill:#DADFE1;}
	.st1{fill:#D1E8FF;}
</style>
<g>
	<circle class="st0" cx="1080.7" cy="1022.1" r="2.3"/>
	<ellipse class="st0" cx="1055.1" cy="1022.1" rx="2.3" ry="2.3"/>
	<path class="st0" d="M1029.5,1024.4c1.2,0,2.3-1,2.3-2.3s-1-2.3-2.3-2.3s-2.3,1-2.3,2.3S1028.2,1024.4,1029.5,1024.4z"/>
	<circle class="st0" cx="1003.8" cy="1022.1" r="2.3"/>
	<circle class="st0" cx="978.2" cy="1022.1" r="2.3"/>
	<path class="st0" d="M952.6,1024.4c1.3,0,2.3-1,2.3-2.3s-1-2.3-2.3-2.3s-2.3,1-2.3,2.3S951.3,1024.4,952.6,1024.4z"/>
	<path class="st0" d="M926.9,1024.4c1.3,0,2.3-1,2.3-2.3s-1-2.3-2.3-2.3s-2.3,1-2.3,2.3C924.7,1023.4,925.7,1024.4,926.9,1024.4z"/>
	<path class="st0" d="M901.3,1024.4c1.3,0,2.3-1,2.3-2.3s-1-2.3-2.3-2.3s-2.3,1-2.3,2.3S900.1,1024.4,901.3,1024.4z"/>
	<path class="st0" d="M875.7,1024.4c1.3,0,2.3-1,2.3-2.3s-1-2.3-2.3-2.3s-2.3,1-2.3,2.3S874.4,1024.4,875.7,1024.4z"/>
	<path class="st0" d="M850.1,1024.4c1.3,0,2.3-1,2.3-2.3s-1-2.3-2.3-2.3s-2.3,1-2.3,2.3S848.8,1024.4,850.1,1024.4z"/>
	<path class="st0" d="M824.4,1024.4c1.3,0,2.3-1,2.3-2.3s-1-2.3-2.3-2.3s-2.3,1-2.3,2.3C822.2,1023.4,823.2,1024.4,824.4,1024.4z"/>
	<path class="st0" d="M798.8,1024.4c1.3,0,2.3-1,2.3-2.3s-1-2.3-2.3-2.3s-2.3,1-2.3,2.3S797.6,1024.4,798.8,1024.4z"/>
	<path class="st0" d="M773.2,1024.4c1.3,0,2.3-1,2.3-2.3s-1-2.3-2.3-2.3s-2.3,1-2.3,2.3S771.9,1024.4,773.2,1024.4z"/>
	<path class="st0" d="M747.6,1019.8c-1.3,0-2.3,1-2.3,2.3s1,2.3,2.3,2.3c1.2,0,2.3-1,2.3-2.3
		C749.8,1020.8,748.8,1019.8,747.6,1019.8z"/>
	<circle class="st0" cx="1080.7" cy="996.5" r="2.3"/>
	<circle class="st0" cx="1055.1" cy="996.5" r="2.3"/>
	<path class="st0" d="M1029.5,998.7c1.2,0,2.3-1,2.3-2.3s-1-2.3-2.3-2.3s-2.3,1-2.3,2.3S1028.2,998.7,1029.5,998.7z"/>
	<circle class="st0" cx="1003.8" cy="996.5" r="2.3"/>
	<circle class="st0" cx="978.2" cy="996.5" r="2.3"/>
	<path class="st0" d="M952.6,998.7c1.3,0,2.3-1,2.3-2.3s-1-2.3-2.3-2.3s-2.3,1-2.3,2.3S951.3,998.7,952.6,998.7z"/>
	<path class="st0" d="M926.9,998.7c1.3,0,2.3-1,2.3-2.3s-1-2.3-2.3-2.3s-2.3,1-2.3,2.3C924.7,997.7,925.7,998.7,926.9,998.7z"/>
	<path class="st0" d="M901.3,998.7c1.3,0,2.3-1,2.3-2.3s-1-2.3-2.3-2.3s-2.3,1-2.3,2.3S900.1,998.7,901.3,998.7z"/>
	<path class="st0" d="M875.7,998.7c1.3,0,2.3-1,2.3-2.3s-1-2.3-2.3-2.3s-2.3,1-2.3,2.3S874.4,998.7,875.7,998.7z"/>
	<path class="st0" d="M850.1,998.7c1.3,0,2.3-1,2.3-2.3s-1-2.3-2.3-2.3s-2.3,1-2.3,2.3S848.8,998.7,850.1,998.7z"/>
	<path class="st0" d="M824.4,998.7c1.3,0,2.3-1,2.3-2.3s-1-2.3-2.3-2.3s-2.3,1-2.3,2.3C822.2,997.7,823.2,998.7,824.4,998.7z"/>
	<path class="st0" d="M798.8,998.7c1.3,0,2.3-1,2.3-2.3s-1-2.3-2.3-2.3s-2.3,1-2.3,2.3S797.6,998.7,798.8,998.7z"/>
	<path class="st0" d="M773.2,998.7c1.3,0,2.3-1,2.3-2.3s-1-2.3-2.3-2.3s-2.3,1-2.3,2.3S771.9,998.7,773.2,998.7z"/>
	<path class="st0" d="M747.6,998.7c1.2,0,2.3-1,2.3-2.3s-1-2.3-2.3-2.3s-2.3,1-2.3,2.3S746.3,998.7,747.6,998.7z"/>
	<circle class="st0" cx="1080.7" cy="970.8" r="2.3"/>
	<ellipse class="st0" cx="1055.1" cy="970.8" rx="2.3" ry="2.3"/>
	<path class="st0" d="M1029.5,973.1c1.2,0,2.3-1,2.3-2.3s-1-2.3-2.3-2.3s-2.3,1-2.3,2.3S1028.2,973.1,1029.5,973.1z"/>
	<circle class="st0" cx="1003.8" cy="970.8" r="2.3"/>
	<circle class="st0" cx="978.2" cy="970.8" r="2.3"/>
	<path class="st0" d="M952.6,973.1c1.3,0,2.3-1,2.3-2.3s-1-2.3-2.3-2.3s-2.3,1-2.3,2.3S951.3,973.1,952.6,973.1z"/>
	<path class="st0" d="M926.9,973.1c1.3,0,2.3-1,2.3-2.3s-1-2.3-2.3-2.3s-2.3,1-2.3,2.3C924.7,972.1,925.7,973.1,926.9,973.1z"/>
	<path class="st0" d="M901.3,973.1c1.3,0,2.3-1,2.3-2.3s-1-2.3-2.3-2.3s-2.3,1-2.3,2.3S900.1,973.1,901.3,973.1z"/>
	<path class="st0" d="M875.7,973.1c1.3,0,2.3-1,2.3-2.3s-1-2.3-2.3-2.3s-2.3,1-2.3,2.3S874.4,973.1,875.7,973.1z"/>
	<path class="st0" d="M850.1,973.1c1.3,0,2.3-1,2.3-2.3s-1-2.3-2.3-2.3s-2.3,1-2.3,2.3S848.8,973.1,850.1,973.1z"/>
	<path class="st0" d="M824.4,973.1c1.3,0,2.3-1,2.3-2.3s-1-2.3-2.3-2.3s-2.3,1-2.3,2.3C822.2,972.1,823.2,973.1,824.4,973.1z"/>
	<path class="st0" d="M798.8,973.1c1.3,0,2.3-1,2.3-2.3s-1-2.3-2.3-2.3s-2.3,1-2.3,2.3S797.6,973.1,798.8,973.1z"/>
	<path class="st0" d="M773.2,973.1c1.3,0,2.3-1,2.3-2.3s-1-2.3-2.3-2.3s-2.3,1-2.3,2.3S771.9,973.1,773.2,973.1z"/>
	<path class="st0" d="M747.6,973.1c1.2,0,2.3-1,2.3-2.3s-1-2.3-2.3-2.3s-2.3,1-2.3,2.3S746.3,973.1,747.6,973.1z"/>
	<circle class="st0" cx="1080.7" cy="945.2" r="2.3"/>
	<circle class="st0" cx="1055.1" cy="945.2" r="2.3"/>
	<path class="st0" d="M1029.5,947.5c1.2,0,2.3-1,2.3-2.3s-1-2.3-2.3-2.3s-2.3,1-2.3,2.3S1028.2,947.5,1029.5,947.5z"/>
	<circle class="st0" cx="1003.8" cy="945.2" r="2.3"/>
	<circle class="st0" cx="978.2" cy="945.2" r="2.3"/>
	<path class="st0" d="M952.6,947.5c1.3,0,2.3-1,2.3-2.3s-1-2.3-2.3-2.3s-2.3,1-2.3,2.3S951.3,947.5,952.6,947.5z"/>
	<path class="st0" d="M926.9,947.5c1.3,0,2.3-1,2.3-2.3s-1-2.3-2.3-2.3s-2.3,1-2.3,2.3C924.7,946.5,925.7,947.5,926.9,947.5z"/>
	<path class="st0" d="M901.3,947.5c1.3,0,2.3-1,2.3-2.3s-1-2.3-2.3-2.3s-2.3,1-2.3,2.3S900.1,947.5,901.3,947.5z"/>
	<path class="st0" d="M875.7,947.5c1.3,0,2.3-1,2.3-2.3s-1-2.3-2.3-2.3s-2.3,1-2.3,2.3S874.4,947.5,875.7,947.5z"/>
	<path class="st0" d="M850.1,947.5c1.3,0,2.3-1,2.3-2.3s-1-2.3-2.3-2.3s-2.3,1-2.3,2.3S848.8,947.5,850.1,947.5z"/>
	<path class="st0" d="M824.4,947.5c1.3,0,2.3-1,2.3-2.3s-1-2.3-2.3-2.3s-2.3,1-2.3,2.3C822.2,946.5,823.2,947.5,824.4,947.5z"/>
	<path class="st0" d="M798.8,947.5c1.3,0,2.3-1,2.3-2.3s-1-2.3-2.3-2.3s-2.3,1-2.3,2.3S797.6,947.5,798.8,947.5z"/>
	<path class="st0" d="M773.2,947.5c1.3,0,2.3-1,2.3-2.3s-1-2.3-2.3-2.3s-2.3,1-2.3,2.3S771.9,947.5,773.2,947.5z"/>
	<path class="st0" d="M747.6,947.5c1.2,0,2.3-1,2.3-2.3s-1-2.3-2.3-2.3s-2.3,1-2.3,2.3S746.3,947.5,747.6,947.5z"/>
	<circle class="st0" cx="1080.7" cy="919.6" r="2.3"/>
	<circle class="st0" cx="1055.1" cy="919.6" r="2.3"/>
	<path class="st0" d="M1029.5,921.9c1.2,0,2.3-1,2.3-2.3s-1-2.3-2.3-2.3s-2.3,1-2.3,2.3C1027.2,920.8,1028.2,921.9,1029.5,921.9z"/>
	<circle class="st0" cx="1003.8" cy="919.6" r="2.3"/>
	<circle class="st0" cx="978.2" cy="919.6" r="2.3"/>
	<path class="st0" d="M952.6,921.9c1.3,0,2.3-1,2.3-2.3s-1-2.3-2.3-2.3s-2.3,1-2.3,2.3C950.3,920.8,951.3,921.9,952.6,921.9z"/>
	<path class="st0" d="M926.9,921.9c1.3,0,2.3-1,2.3-2.3s-1-2.3-2.3-2.3s-2.3,1-2.3,2.3C924.7,920.8,925.7,921.9,926.9,921.9z"/>
	<path class="st0" d="M901.3,921.9c1.3,0,2.3-1,2.3-2.3s-1-2.3-2.3-2.3s-2.3,1-2.3,2.3C899,920.8,900.1,921.9,901.3,921.9z"/>
	<path class="st0" d="M875.7,921.9c1.3,0,2.3-1,2.3-2.3s-1-2.3-2.3-2.3s-2.3,1-2.3,2.3C873.4,920.8,874.4,921.9,875.7,921.9z"/>
	<path class="st0" d="M850.1,921.9c1.3,0,2.3-1,2.3-2.3s-1-2.3-2.3-2.3s-2.3,1-2.3,2.3C847.8,920.8,848.8,921.9,850.1,921.9z"/>
	<path class="st0" d="M824.4,921.9c1.3,0,2.3-1,2.3-2.3s-1-2.3-2.3-2.3s-2.3,1-2.3,2.3C822.2,920.8,823.2,921.9,824.4,921.9z"/>
	<path class="st0" d="M798.8,921.9c1.3,0,2.3-1,2.3-2.3s-1-2.3-2.3-2.3s-2.3,1-2.3,2.3C796.5,920.8,797.6,921.9,798.8,921.9z"/>
	<path class="st0" d="M773.2,921.9c1.3,0,2.3-1,2.3-2.3s-1-2.3-2.3-2.3s-2.3,1-2.3,2.3C770.9,920.8,771.9,921.9,773.2,921.9z"/>
	<path class="st0" d="M747.6,921.9c1.2,0,2.3-1,2.3-2.3s-1-2.3-2.3-2.3s-2.3,1-2.3,2.3C745.3,920.8,746.3,921.9,747.6,921.9z"/>
	<path class="st0" d="M1080.7,896.2c1.3,0,2.3-1,2.3-2.3s-1-2.3-2.3-2.3s-2.3,1-2.3,2.3C1078.4,895.2,1079.5,896.2,1080.7,896.2z"/>
	<path class="st0" d="M1055.1,896.2c1.3,0,2.3-1,2.3-2.3s-1-2.3-2.3-2.3c-1.2,0-2.3,1-2.3,2.3
		C1052.8,895.2,1053.8,896.2,1055.1,896.2z"/>
	<path class="st0" d="M1029.5,896.2c1.2,0,2.3-1,2.3-2.3s-1-2.3-2.3-2.3s-2.3,1-2.3,2.3S1028.2,896.2,1029.5,896.2z"/>
	<path class="st0" d="M1003.8,896.2c1.3,0,2.3-1,2.3-2.3s-1-2.3-2.3-2.3s-2.3,1-2.3,2.3C1001.6,895.2,1002.6,896.2,1003.8,896.2z"/>
	<path class="st0" d="M978.2,896.2c1.3,0,2.3-1,2.3-2.3s-1-2.3-2.3-2.3s-2.3,1-2.3,2.3S976.9,896.2,978.2,896.2z"/>
	<circle class="st0" cx="952.6" cy="894" r="2.3"/>
	<circle class="st0" cx="926.9" cy="894" r="2.3"/>
	<ellipse class="st0" cx="901.3" cy="894" rx="2.3" ry="2.3"/>
	<ellipse class="st0" cx="875.7" cy="894" rx="2.3" ry="2.3"/>
	<ellipse class="st0" cx="850.1" cy="894" rx="2.3" ry="2.3"/>
	<ellipse class="st0" cx="824.4" cy="894" rx="2.3" ry="2.3"/>
	<ellipse class="st0" cx="798.8" cy="894" rx="2.3" ry="2.3"/>
	<circle class="st0" cx="773.2" cy="894" r="2.3"/>
	<ellipse class="st0" cx="747.6" cy="894" rx="2.3" ry="2.3"/>
	<circle class="st0" cx="1080.7" cy="868.3" r="2.3"/>
	<circle class="st0" cx="1055.1" cy="868.3" r="2.3"/>
	<path class="st0" d="M1029.5,870.6c1.2,0,2.3-1,2.3-2.3c0-1.2-1-2.3-2.3-2.3s-2.3,1-2.3,2.3S1028.2,870.6,1029.5,870.6z"/>
	<circle class="st0" cx="1003.8" cy="868.3" r="2.3"/>
	<circle class="st0" cx="978.2" cy="868.3" r="2.3"/>
	<ellipse class="st0" cx="952.6" cy="868.3" rx="2.3" ry="2.3"/>
	<circle class="st0" cx="926.9" cy="868.3" r="2.3"/>
	<ellipse class="st0" cx="901.3" cy="868.3" rx="2.3" ry="2.3"/>
	<ellipse class="st0" cx="875.7" cy="868.3" rx="2.3" ry="2.3"/>
	<ellipse class="st0" cx="850.1" cy="868.3" rx="2.3" ry="2.3"/>
	<ellipse class="st0" cx="824.4" cy="868.3" rx="2.3" ry="2.3"/>
	<ellipse class="st0" cx="798.8" cy="868.3" rx="2.3" ry="2.3"/>
	<ellipse class="st0" cx="773.2" cy="868.3" rx="2.3" ry="2.3"/>
	<ellipse class="st0" cx="747.6" cy="868.3" rx="2.3" ry="2.3"/>
	<ellipse class="st0" cx="1080.7" cy="842.7" rx="2.3" ry="2.3"/>
	<circle class="st0" cx="1055.1" cy="842.7" r="2.3"/>
	<path class="st0" d="M1029.5,845c1.2,0,2.3-1,2.3-2.3s-1-2.3-2.3-2.3s-2.3,1-2.3,2.3S1028.2,845,1029.5,845z"/>
	<ellipse class="st0" cx="1003.8" cy="842.7" rx="2.3" ry="2.3"/>
	<ellipse class="st0" cx="978.2" cy="842.7" rx="2.3" ry="2.3"/>
	<ellipse class="st0" cx="952.6" cy="842.7" rx="2.3" ry="2.3"/>
	<circle class="st0" cx="926.9" cy="842.7" r="2.3"/>
	<ellipse class="st0" cx="901.3" cy="842.7" rx="2.3" ry="2.3"/>
	<ellipse class="st0" cx="875.7" cy="842.7" rx="2.3" ry="2.3"/>
	<ellipse class="st0" cx="850.1" cy="842.7" rx="2.3" ry="2.3"/>
	<ellipse class="st0" cx="824.4" cy="842.7" rx="2.3" ry="2.3"/>
	<ellipse class="st0" cx="798.8" cy="842.7" rx="2.3" ry="2.3"/>
	<ellipse class="st0" cx="773.2" cy="842.7" rx="2.3" ry="2.3"/>
	<ellipse class="st0" cx="747.6" cy="842.7" rx="2.3" ry="2.3"/>
	<circle class="st0" cx="1080.7" cy="817.1" r="2.3"/>
	<ellipse class="st0" cx="1055.1" cy="817.1" rx="2.3" ry="2.3"/>
	<path class="st0" d="M1029.5,819.4c1.2,0,2.3-1,2.3-2.3s-1-2.3-2.3-2.3s-2.3,1-2.3,2.3S1028.2,819.4,1029.5,819.4z"/>
	<circle class="st0" cx="1003.8" cy="817.1" r="2.3"/>
	<circle class="st0" cx="978.2" cy="817.1" r="2.3"/>
	<ellipse class="st0" cx="952.6" cy="817.1" rx="2.3" ry="2.3"/>
	<ellipse class="st0" cx="926.9" cy="817.1" rx="2.3" ry="2.3"/>
	<ellipse class="st0" cx="901.3" cy="817.1" rx="2.3" ry="2.3"/>
	<circle class="st0" cx="875.7" cy="817.1" r="2.3"/>
	<circle class="st0" cx="850.1" cy="817.1" r="2.3"/>
	<circle class="st0" cx="824.4" cy="817.1" r="2.3"/>
	<circle class="st0" cx="798.8" cy="817.1" r="2.3"/>
	<ellipse class="st0" cx="773.2" cy="817.1" rx="2.3" ry="2.3"/>
	<ellipse class="st0" cx="747.6" cy="817.1" rx="2.3" ry="2.3"/>
	<circle class="st0" cx="1080.7" cy="791.5" r="2.3"/>
	<circle class="st0" cx="1055.1" cy="791.5" r="2.3"/>
	<path class="st0" d="M1029.5,793.7c1.2,0,2.3-1,2.3-2.3s-1-2.3-2.3-2.3s-2.3,1-2.3,2.3S1028.2,793.7,1029.5,793.7z"/>
	<circle class="st0" cx="1003.8" cy="791.5" r="2.3"/>
	<circle class="st0" cx="978.2" cy="791.5" r="2.3"/>
	<ellipse class="st0" cx="952.6" cy="791.5" rx="2.3" ry="2.3"/>
	<ellipse class="st0" cx="926.9" cy="791.5" rx="2.3" ry="2.3"/>
	<circle class="st0" cx="901.3" cy="791.5" r="2.3"/>
	<circle class="st0" cx="875.7" cy="791.5" r="2.3"/>
	<circle class="st0" cx="850.1" cy="791.5" r="2.3"/>
	<circle class="st0" cx="824.4" cy="791.5" r="2.3"/>
	<circle class="st0" cx="798.8" cy="791.5" r="2.3"/>
	<ellipse class="st0" cx="773.2" cy="791.5" rx="2.3" ry="2.3"/>
	<circle class="st0" cx="747.6" cy="791.5" r="2.3"/>
	<circle class="st0" cx="1080.7" cy="765.8" r="2.3"/>
	<circle class="st0" cx="1055.1" cy="765.8" r="2.3"/>
	<path class="st0" d="M1029.5,768.1c1.2,0,2.3-1,2.3-2.3s-1-2.3-2.3-2.3s-2.3,1-2.3,2.3S1028.2,768.1,1029.5,768.1z"/>
	<circle class="st0" cx="1003.8" cy="765.8" r="2.3"/>
	<circle class="st0" cx="978.2" cy="765.8" r="2.3"/>
	<path class="st0" d="M952.6,768.1c1.3,0,2.3-1,2.3-2.3s-1-2.3-2.3-2.3s-2.3,1-2.3,2.3S951.3,768.1,952.6,768.1z"/>
	<path class="st0" d="M926.9,768.1c1.3,0,2.3-1,2.3-2.3s-1-2.3-2.3-2.3s-2.3,1-2.3,2.3C924.7,767.1,925.7,768.1,926.9,768.1z"/>
	<path class="st0" d="M901.3,768.1c1.3,0,2.3-1,2.3-2.3s-1-2.3-2.3-2.3s-2.3,1-2.3,2.3S900.1,768.1,901.3,768.1z"/>
	<path class="st0" d="M875.7,768.1c1.3,0,2.3-1,2.3-2.3s-1-2.3-2.3-2.3s-2.3,1-2.3,2.3S874.4,768.1,875.7,768.1z"/>
	<path class="st0" d="M850.1,768.1c1.3,0,2.3-1,2.3-2.3s-1-2.3-2.3-2.3s-2.3,1-2.3,2.3S848.8,768.1,850.1,768.1z"/>
	<path class="st0" d="M824.4,768.1c1.3,0,2.3-1,2.3-2.3s-1-2.3-2.3-2.3s-2.3,1-2.3,2.3C822.2,767.1,823.2,768.1,824.4,768.1z"/>
	<path class="st0" d="M798.8,768.1c1.3,0,2.3-1,2.3-2.3s-1-2.3-2.3-2.3s-2.3,1-2.3,2.3S797.6,768.1,798.8,768.1z"/>
	<path class="st0" d="M773.2,768.1c1.3,0,2.3-1,2.3-2.3s-1-2.3-2.3-2.3s-2.3,1-2.3,2.3S771.9,768.1,773.2,768.1z"/>
	<path class="st0" d="M747.6,768.1c1.2,0,2.3-1,2.3-2.3s-1-2.3-2.3-2.3s-2.3,1-2.3,2.3S746.3,768.1,747.6,768.1z"/>
	<circle class="st0" cx="1080.7" cy="740.2" r="2.3"/>
	<circle class="st0" cx="1055.1" cy="740.2" r="2.3"/>
	<path class="st0" d="M1029.5,742.5c1.2,0,2.3-1,2.3-2.3s-1-2.3-2.3-2.3s-2.3,1-2.3,2.3S1028.2,742.5,1029.5,742.5z"/>
	<circle class="st0" cx="1003.8" cy="740.2" r="2.3"/>
	<path class="st0" d="M978.2,742.5c1.3,0,2.3-1,2.3-2.3s-1-2.3-2.3-2.3s-2.3,1-2.3,2.3S976.9,742.5,978.2,742.5z"/>
	<circle class="st0" cx="952.6" cy="740.2" r="2.3"/>
	<ellipse class="st0" cx="926.9" cy="740.2" rx="2.3" ry="2.3"/>
	<circle class="st0" cx="901.3" cy="740.2" r="2.3"/>
	<circle class="st0" cx="875.7" cy="740.2" r="2.3"/>
	<path class="st0" d="M850.1,742.5c1.3,0,2.3-1,2.3-2.3s-1-2.3-2.3-2.3s-2.3,1-2.3,2.3S848.8,742.5,850.1,742.5z"/>
	<circle class="st0" cx="824.4" cy="740.2" r="2.3"/>
	<circle class="st0" cx="798.8" cy="740.2" r="2.3"/>
	<circle class="st0" cx="773.2" cy="740.2" r="2.3"/>
	<circle class="st0" cx="747.6" cy="740.2" r="2.3"/>
	<circle class="st0" cx="1080.7" cy="714.6" r="2.3"/>
	<circle class="st0" cx="1055.1" cy="714.6" r="2.3"/>
	<path class="st0" d="M1029.5,716.8c1.2,0,2.3-1,2.3-2.3s-1-2.3-2.3-2.3s-2.3,1-2.3,2.3S1028.2,716.8,1029.5,716.8z"/>
	<circle class="st0" cx="1003.8" cy="714.6" r="2.3"/>
	<path class="st0" d="M978.2,716.8c1.3,0,2.3-1,2.3-2.3s-1-2.3-2.3-2.3s-2.3,1-2.3,2.3S976.9,716.8,978.2,716.8z"/>
	<path class="st0" d="M952.6,716.8c1.3,0,2.3-1,2.3-2.3c0-1.2-1-2.3-2.3-2.3s-2.3,1-2.3,2.3S951.3,716.8,952.6,716.8z"/>
	<path class="st0" d="M926.9,716.8c1.3,0,2.3-1,2.3-2.3c0-1.2-1-2.3-2.3-2.3s-2.3,1-2.3,2.3C924.7,715.8,925.7,716.8,926.9,716.8z"
		/>
	<path class="st0" d="M901.3,716.8c1.3,0,2.3-1,2.3-2.3c0-1.2-1-2.3-2.3-2.3s-2.3,1-2.3,2.3S900.1,716.8,901.3,716.8z"/>
	<path class="st0" d="M875.7,716.8c1.3,0,2.3-1,2.3-2.3c0-1.2-1-2.3-2.3-2.3s-2.3,1-2.3,2.3S874.4,716.8,875.7,716.8z"/>
	<path class="st0" d="M850.1,716.8c1.3,0,2.3-1,2.3-2.3c0-1.2-1-2.3-2.3-2.3s-2.3,1-2.3,2.3S848.8,716.8,850.1,716.8z"/>
	<path class="st0" d="M824.4,716.8c1.3,0,2.3-1,2.3-2.3c0-1.2-1-2.3-2.3-2.3s-2.3,1-2.3,2.3C822.2,715.8,823.2,716.8,824.4,716.8z"
		/>
	<path class="st0" d="M798.8,716.8c1.2,0,2.3-1,2.3-2.3c0-1.2-1-2.3-2.3-2.3s-2.3,1-2.3,2.3S797.5,716.8,798.8,716.8z"/>
	<path class="st0" d="M773.2,716.8c1.3,0,2.3-1,2.3-2.3c0-1.2-1-2.3-2.3-2.3s-2.3,1-2.3,2.3S771.9,716.8,773.2,716.8z"/>
	<path class="st0" d="M747.5,716.8c1.3,0,2.3-1,2.3-2.3c0-1.2-1-2.3-2.3-2.3s-2.3,1-2.3,2.3C745.3,715.8,746.3,716.8,747.5,716.8z"
		/>
	<circle class="st0" cx="1080.7" cy="688.9" r="2.3"/>
	<ellipse class="st0" cx="1055.1" cy="688.9" rx="2.3" ry="2.3"/>
	<path class="st0" d="M1029.5,691.2c1.2,0,2.3-1,2.3-2.3s-1-2.3-2.3-2.3s-2.3,1-2.3,2.3S1028.2,691.2,1029.5,691.2z"/>
	<ellipse class="st0" cx="1003.8" cy="688.9" rx="2.3" ry="2.3"/>
	<path class="st0" d="M978.2,691.2c1.3,0,2.3-1,2.3-2.3s-1-2.3-2.3-2.3s-2.3,1-2.3,2.3S976.9,691.2,978.2,691.2z"/>
	<circle class="st0" cx="952.6" cy="688.9" r="2.3"/>
	<ellipse class="st0" cx="926.9" cy="688.9" rx="2.3" ry="2.3"/>
	<circle class="st0" cx="901.3" cy="688.9" r="2.3"/>
	<circle class="st0" cx="875.7" cy="688.9" r="2.3"/>
	<path class="st0" d="M850.1,691.2c1.3,0,2.3-1,2.3-2.3s-1-2.3-2.3-2.3s-2.3,1-2.3,2.3S848.8,691.2,850.1,691.2z"/>
	<ellipse class="st0" cx="824.4" cy="688.9" rx="2.3" ry="2.3"/>
	<circle class="st0" cx="798.8" cy="688.9" r="2.3"/>
	<circle class="st0" cx="773.2" cy="688.9" r="2.3"/>
	<circle class="st0" cx="747.6" cy="688.9" r="2.3"/>
	<circle class="st0" cx="1080.7" cy="663.3" r="2.3"/>
	<circle class="st0" cx="1055.1" cy="663.3" r="2.3"/>
	<path class="st0" d="M1029.5,665.6c1.2,0,2.3-1,2.3-2.3c0-1.2-1-2.3-2.3-2.3s-2.3,1-2.3,2.3S1028.2,665.6,1029.5,665.6z"/>
	<circle class="st0" cx="1003.8" cy="663.3" r="2.3"/>
	<path class="st0" d="M978.2,665.6c1.3,0,2.3-1,2.3-2.3c0-1.2-1-2.3-2.3-2.3s-2.3,1-2.3,2.3S976.9,665.6,978.2,665.6z"/>
	<ellipse class="st0" cx="952.6" cy="663.3" rx="2.3" ry="2.3"/>
	<ellipse class="st0" cx="926.9" cy="663.3" rx="2.3" ry="2.3"/>
	<ellipse class="st0" cx="901.3" cy="663.3" rx="2.3" ry="2.3"/>
	<ellipse class="st0" cx="875.7" cy="663.3" rx="2.3" ry="2.3"/>
	<path class="st0" d="M850.1,665.6c1.3,0,2.3-1,2.3-2.3c0-1.2-1-2.3-2.3-2.3s-2.3,1-2.3,2.3S848.8,665.6,850.1,665.6z"/>
	<circle class="st0" cx="824.4" cy="663.3" r="2.3"/>
	<circle class="st0" cx="798.8" cy="663.3" r="2.3"/>
	<ellipse class="st0" cx="773.2" cy="663.3" rx="2.3" ry="2.3"/>
	<ellipse class="st0" cx="747.6" cy="663.3" rx="2.3" ry="2.3"/>
	<circle class="st0" cx="1080.7" cy="637.7" r="2.3"/>
	<ellipse class="st0" cx="1055.1" cy="637.7" rx="2.3" ry="2.3"/>
	<path class="st0" d="M1029.5,640c1.2,0,2.3-1,2.3-2.3s-1-2.3-2.3-2.3s-2.3,1-2.3,2.3C1027.2,638.9,1028.2,640,1029.5,640z"/>
	<ellipse class="st0" cx="1003.8" cy="637.7" rx="2.3" ry="2.3"/>
	<path class="st0" d="M978.2,640c1.3,0,2.3-1,2.3-2.3s-1-2.3-2.3-2.3s-2.3,1-2.3,2.3C975.9,638.9,976.9,640,978.2,640z"/>
	<circle class="st0" cx="952.6" cy="637.7" r="2.3"/>
	<ellipse class="st0" cx="926.9" cy="637.7" rx="2.3" ry="2.3"/>
	<circle class="st0" cx="901.3" cy="637.7" r="2.3"/>
	<circle class="st0" cx="875.7" cy="637.7" r="2.3"/>
	<path class="st0" d="M850.1,640c1.3,0,2.3-1,2.3-2.3s-1-2.3-2.3-2.3s-2.3,1-2.3,2.3C847.8,638.9,848.8,640,850.1,640z"/>
	<circle class="st0" cx="824.4" cy="637.7" r="2.3"/>
	<circle class="st0" cx="798.8" cy="637.7" r="2.3"/>
	<circle class="st0" cx="773.2" cy="637.7" r="2.3"/>
	<circle class="st0" cx="747.6" cy="637.7" r="2.3"/>
	<circle class="st0" cx="1080.7" cy="612.1" r="2.3"/>
	<ellipse class="st0" cx="1055.1" cy="612.1" rx="2.3" ry="2.3"/>
	<path class="st0" d="M1029.5,614.3c1.2,0,2.3-1,2.3-2.3s-1-2.3-2.3-2.3s-2.3,1-2.3,2.3S1028.2,614.3,1029.5,614.3z"/>
	<ellipse class="st0" cx="1003.8" cy="612.1" rx="2.3" ry="2.3"/>
	<path class="st0" d="M978.2,614.3c1.3,0,2.3-1,2.3-2.3s-1-2.3-2.3-2.3s-2.3,1-2.3,2.3S976.9,614.3,978.2,614.3z"/>
	<path class="st0" d="M952.6,614.3c1.3,0,2.3-1,2.3-2.3c0-1.2-1-2.3-2.3-2.3s-2.3,1-2.3,2.3S951.3,614.3,952.6,614.3z"/>
	<path class="st0" d="M926.9,614.3c1.3,0,2.3-1,2.3-2.3c0-1.2-1-2.3-2.3-2.3s-2.3,1-2.3,2.3C924.7,613.3,925.7,614.3,926.9,614.3z"
		/>
	<path class="st0" d="M901.3,614.3c1.3,0,2.3-1,2.3-2.3c0-1.2-1-2.3-2.3-2.3s-2.3,1-2.3,2.3S900.1,614.3,901.3,614.3z"/>
	<path class="st0" d="M875.7,614.3c1.3,0,2.3-1,2.3-2.3c0-1.2-1-2.3-2.3-2.3s-2.3,1-2.3,2.3S874.4,614.3,875.7,614.3z"/>
	<path class="st0" d="M850.1,614.3c1.3,0,2.3-1,2.3-2.3c0-1.2-1-2.3-2.3-2.3s-2.3,1-2.3,2.3S848.8,614.3,850.1,614.3z"/>
	<path class="st0" d="M824.4,614.3c1.3,0,2.3-1,2.3-2.3c0-1.2-1-2.3-2.3-2.3s-2.3,1-2.3,2.3C822.2,613.3,823.2,614.3,824.4,614.3z"
		/>
	<path class="st0" d="M798.8,614.3c1.2,0,2.3-1,2.3-2.3c0-1.2-1-2.3-2.3-2.3s-2.3,1-2.3,2.3S797.5,614.3,798.8,614.3z"/>
	<path class="st0" d="M773.2,614.3c1.3,0,2.3-1,2.3-2.3c0-1.2-1-2.3-2.3-2.3s-2.3,1-2.3,2.3S771.9,614.3,773.2,614.3z"/>
	<path class="st0" d="M747.5,614.3c1.3,0,2.3-1,2.3-2.3c0-1.2-1-2.3-2.3-2.3s-2.3,1-2.3,2.3C745.3,613.3,746.3,614.3,747.5,614.3z"
		/>
	<ellipse class="st0" cx="1080.7" cy="586.4" rx="2.3" ry="2.3"/>
	<ellipse class="st0" cx="1055.1" cy="586.4" rx="2.3" ry="2.3"/>
	<path class="st0" d="M1029.5,588.7c1.2,0,2.3-1,2.3-2.3s-1-2.3-2.3-2.3s-2.3,1-2.3,2.3S1028.2,588.7,1029.5,588.7z"/>
	<ellipse class="st0" cx="1003.8" cy="586.4" rx="2.3" ry="2.3"/>
	<path class="st0" d="M978.2,588.7c1.3,0,2.3-1,2.3-2.3s-1-2.3-2.3-2.3s-2.3,1-2.3,2.3S976.9,588.7,978.2,588.7z"/>
	<circle class="st0" cx="952.6" cy="586.4" r="2.3"/>
	<ellipse class="st0" cx="926.9" cy="586.4" rx="2.3" ry="2.3"/>
	<circle class="st0" cx="901.3" cy="586.4" r="2.3"/>
	<circle class="st0" cx="875.7" cy="586.4" r="2.3"/>
	<path class="st0" d="M850.1,588.7c1.3,0,2.3-1,2.3-2.3s-1-2.3-2.3-2.3s-2.3,1-2.3,2.3S848.8,588.7,850.1,588.7z"/>
	<circle class="st0" cx="824.4" cy="586.4" r="2.3"/>
	<circle class="st0" cx="798.8" cy="586.4" r="2.3"/>
	<circle class="st0" cx="773.2" cy="586.4" r="2.3"/>
	<circle class="st0" cx="747.6" cy="586.4" r="2.3"/>
	<circle class="st0" cx="1080.7" cy="560.8" r="2.3"/>
	<circle class="st0" cx="1055.1" cy="560.8" r="2.3"/>
	<path class="st0" d="M1029.5,563.1c1.2,0,2.3-1,2.3-2.3s-1-2.3-2.3-2.3s-2.3,1-2.3,2.3S1028.2,563.1,1029.5,563.1z"/>
	<circle class="st0" cx="1003.8" cy="560.8" r="2.3"/>
	<path class="st0" d="M978.2,563.1c1.3,0,2.3-1,2.3-2.3s-1-2.3-2.3-2.3s-2.3,1-2.3,2.3S976.9,563.1,978.2,563.1z"/>
	<circle class="st0" cx="952.6" cy="560.8" r="2.3"/>
	<ellipse class="st0" cx="926.9" cy="560.8" rx="2.3" ry="2.3"/>
	<ellipse class="st0" cx="901.3" cy="560.8" rx="2.3" ry="2.3"/>
	<ellipse class="st0" cx="875.7" cy="560.8" rx="2.3" ry="2.3"/>
	<path class="st0" d="M850.1,563.1c1.3,0,2.3-1,2.3-2.3s-1-2.3-2.3-2.3s-2.3,1-2.3,2.3S848.8,563.1,850.1,563.1z"/>
	<circle class="st0" cx="824.4" cy="560.8" r="2.3"/>
	<circle class="st0" cx="798.8" cy="560.8" r="2.3"/>
	<ellipse class="st0" cx="773.2" cy="560.8" rx="2.3" ry="2.3"/>
	<circle class="st0" cx="747.6" cy="560.8" r="2.3"/>
	<circle class="st0" cx="1080.7" cy="535.2" r="2.3"/>
	<ellipse class="st0" cx="1055.1" cy="535.2" rx="2.3" ry="2.3"/>
	<path class="st0" d="M1029.5,537.4c1.2,0,2.3-1,2.3-2.3s-1-2.3-2.3-2.3s-2.3,1-2.3,2.3S1028.2,537.4,1029.5,537.4z"/>
	<ellipse class="st0" cx="1003.8" cy="535.2" rx="2.3" ry="2.3"/>
	<path class="st0" d="M978.2,537.4c1.3,0,2.3-1,2.3-2.3s-1-2.3-2.3-2.3s-2.3,1-2.3,2.3S976.9,537.4,978.2,537.4z"/>
	<circle class="st0" cx="952.6" cy="535.2" r="2.3"/>
	<ellipse class="st0" cx="926.9" cy="535.2" rx="2.3" ry="2.3"/>
	<circle class="st0" cx="901.3" cy="535.2" r="2.3"/>
	<circle class="st0" cx="875.7" cy="535.2" r="2.3"/>
	<path class="st0" d="M850.1,537.4c1.3,0,2.3-1,2.3-2.3s-1-2.3-2.3-2.3s-2.3,1-2.3,2.3S848.8,537.4,850.1,537.4z"/>
	<ellipse class="st0" cx="824.4" cy="535.2" rx="2.3" ry="2.3"/>
	<circle class="st0" cx="798.8" cy="535.2" r="2.3"/>
	<circle class="st0" cx="773.2" cy="535.2" r="2.3"/>
	<circle class="st0" cx="747.6" cy="535.2" r="2.3"/>
	<path class="st0" d="M1080.7,511.8c1.3,0,2.3-1,2.3-2.3s-1-2.3-2.3-2.3s-2.3,1-2.3,2.3C1078.4,510.8,1079.5,511.8,1080.7,511.8z"/>
	<path class="st0" d="M1055.1,511.8c1.3,0,2.3-1,2.3-2.3s-1-2.3-2.3-2.3c-1.2,0-2.3,1-2.3,2.3
		C1052.8,510.8,1053.8,511.8,1055.1,511.8z"/>
	<path class="st0" d="M1029.5,511.8c1.2,0,2.3-1,2.3-2.3s-1-2.3-2.3-2.3s-2.3,1-2.3,2.3S1028.2,511.8,1029.5,511.8z"/>
	<path class="st0" d="M1003.8,511.8c1.3,0,2.3-1,2.3-2.3s-1-2.3-2.3-2.3s-2.3,1-2.3,2.3S1002.6,511.8,1003.8,511.8z"/>
	<path class="st0" d="M978.2,511.8c1.3,0,2.3-1,2.3-2.3s-1-2.3-2.3-2.3s-2.3,1-2.3,2.3S976.9,511.8,978.2,511.8z"/>
	<circle class="st0" cx="952.6" cy="509.5" r="2.3"/>
	<ellipse class="st0" cx="926.9" cy="509.5" rx="2.3" ry="2.3"/>
	<circle class="st0" cx="901.3" cy="509.5" r="2.3"/>
	<circle class="st0" cx="875.7" cy="509.5" r="2.3"/>
	<path class="st0" d="M850.1,511.8c1.3,0,2.3-1,2.3-2.3s-1-2.3-2.3-2.3s-2.3,1-2.3,2.3S848.8,511.8,850.1,511.8z"/>
	<circle class="st0" cx="824.4" cy="509.5" r="2.3"/>
	<circle class="st0" cx="798.8" cy="509.5" r="2.3"/>
	<circle class="st0" cx="773.2" cy="509.5" r="2.3"/>
	<circle class="st0" cx="747.6" cy="509.5" r="2.3"/>
	<circle class="st0" cx="1080.7" cy="483.9" r="2.3"/>
	<ellipse class="st0" cx="1055.1" cy="483.9" rx="2.3" ry="2.3"/>
	<path class="st0" d="M1029.5,486.2c1.2,0,2.3-1,2.3-2.3s-1-2.3-2.3-2.3s-2.3,1-2.3,2.3S1028.2,486.2,1029.5,486.2z"/>
	<ellipse class="st0" cx="1003.8" cy="483.9" rx="2.3" ry="2.3"/>
	<path class="st0" d="M978.2,486.2c1.3,0,2.3-1,2.3-2.3s-1-2.3-2.3-2.3s-2.3,1-2.3,2.3S976.9,486.2,978.2,486.2z"/>
	<circle class="st0" cx="952.6" cy="483.9" r="2.3"/>
	<ellipse class="st0" cx="926.9" cy="483.9" rx="2.3" ry="2.3"/>
	<circle class="st0" cx="901.3" cy="483.9" r="2.3"/>
	<circle class="st0" cx="875.7" cy="483.9" r="2.3"/>
	<path class="st0" d="M850.1,486.2c1.3,0,2.3-1,2.3-2.3s-1-2.3-2.3-2.3s-2.3,1-2.3,2.3S848.8,486.2,850.1,486.2z"/>
	<ellipse class="st0" cx="824.4" cy="483.9" rx="2.3" ry="2.3"/>
	<circle class="st0" cx="798.8" cy="483.9" r="2.3"/>
	<circle class="st0" cx="773.2" cy="483.9" r="2.3"/>
	<circle class="st0" cx="747.6" cy="483.9" r="2.3"/>
	<path class="st0" d="M1080.7,460.6c1.3,0,2.3-1,2.3-2.3c0-1.2-1-2.3-2.3-2.3s-2.3,1-2.3,2.3
		C1078.4,459.5,1079.5,460.6,1080.7,460.6z"/>
	<path class="st0" d="M1055.1,460.6c1.3,0,2.3-1,2.3-2.3c0-1.2-1-2.3-2.3-2.3c-1.2,0-2.3,1-2.3,2.3
		C1052.8,459.5,1053.8,460.6,1055.1,460.6z"/>
	<path class="st0" d="M1029.5,460.6c1.2,0,2.3-1,2.3-2.3c0-1.2-1-2.3-2.3-2.3s-2.3,1-2.3,2.3
		C1027.2,459.5,1028.2,460.6,1029.5,460.6z"/>
	<path class="st0" d="M1003.8,460.6c1.3,0,2.3-1,2.3-2.3c0-1.2-1-2.3-2.3-2.3s-2.3,1-2.3,2.3
		C1001.5,459.5,1002.6,460.6,1003.8,460.6z"/>
	<path class="st0" d="M978.2,460.6c1.3,0,2.3-1,2.3-2.3c0-1.2-1-2.3-2.3-2.3s-2.3,1-2.3,2.3C975.9,459.5,976.9,460.6,978.2,460.6z"
		/>
	<circle class="st0" cx="952.6" cy="458.3" r="2.3"/>
	<ellipse class="st0" cx="926.9" cy="458.3" rx="2.3" ry="2.3"/>
	<circle class="st0" cx="901.3" cy="458.3" r="2.3"/>
	<circle class="st0" cx="875.7" cy="458.3" r="2.3"/>
	<path class="st0" d="M850.1,460.6c1.3,0,2.3-1,2.3-2.3s-1-2.3-2.3-2.3s-2.3,1-2.3,2.3S848.8,460.6,850.1,460.6z"/>
	<circle class="st0" cx="824.4" cy="458.3" r="2.3"/>
	<circle class="st0" cx="798.8" cy="458.3" r="2.3"/>
	<circle class="st0" cx="773.2" cy="458.3" r="2.3"/>
	<circle class="st0" cx="747.6" cy="458.3" r="2.3"/>
	<circle class="st0" cx="1080.7" cy="432.7" r="2.3"/>
	<circle class="st0" cx="1055.1" cy="432.7" r="2.3"/>
	<path class="st0" d="M1029.5,434.9c1.2,0,2.3-1,2.3-2.3s-1-2.3-2.3-2.3s-2.3,1-2.3,2.3S1028.2,434.9,1029.5,434.9z"/>
	<circle class="st0" cx="1003.8" cy="432.7" r="2.3"/>
	<path class="st0" d="M978.2,434.9c1.3,0,2.3-1,2.3-2.3s-1-2.3-2.3-2.3s-2.3,1-2.3,2.3S976.9,434.9,978.2,434.9z"/>
	<path class="st0" d="M952.6,434.9c1.3,0,2.3-1,2.3-2.3c0-1.2-1-2.3-2.3-2.3s-2.3,1-2.3,2.3S951.3,434.9,952.6,434.9z"/>
	<path class="st0" d="M926.9,434.9c1.3,0,2.3-1,2.3-2.3c0-1.2-1-2.3-2.3-2.3s-2.3,1-2.3,2.3C924.7,433.9,925.7,434.9,926.9,434.9z"
		/>
	<path class="st0" d="M901.3,434.9c1.3,0,2.3-1,2.3-2.3c0-1.2-1-2.3-2.3-2.3s-2.3,1-2.3,2.3S900.1,434.9,901.3,434.9z"/>
	<path class="st0" d="M875.7,434.9c1.3,0,2.3-1,2.3-2.3c0-1.2-1-2.3-2.3-2.3s-2.3,1-2.3,2.3S874.4,434.9,875.7,434.9z"/>
	<path class="st0" d="M850.1,434.9c1.3,0,2.3-1,2.3-2.3c0-1.2-1-2.3-2.3-2.3s-2.3,1-2.3,2.3S848.8,434.9,850.1,434.9z"/>
	<path class="st0" d="M824.4,434.9c1.3,0,2.3-1,2.3-2.3c0-1.2-1-2.3-2.3-2.3s-2.3,1-2.3,2.3C822.2,433.9,823.2,434.9,824.4,434.9z"
		/>
	<path class="st0" d="M798.8,434.9c1.2,0,2.3-1,2.3-2.3c0-1.2-1-2.3-2.3-2.3s-2.3,1-2.3,2.3S797.5,434.9,798.8,434.9z"/>
	<path class="st0" d="M773.2,434.9c1.3,0,2.3-1,2.3-2.3c0-1.2-1-2.3-2.3-2.3s-2.3,1-2.3,2.3S771.9,434.9,773.2,434.9z"/>
	<path class="st0" d="M747.5,434.9c1.3,0,2.3-1,2.3-2.3c0-1.2-1-2.3-2.3-2.3s-2.3,1-2.3,2.3C745.3,433.9,746.3,434.9,747.5,434.9z"
		/>
	<circle class="st0" cx="1080.7" cy="407" r="2.3"/>
	<circle class="st0" cx="1055.1" cy="407" r="2.3"/>
	<path class="st0" d="M1029.5,409.3c1.2,0,2.3-1,2.3-2.3s-1-2.3-2.3-2.3s-2.3,1-2.3,2.3S1028.2,409.3,1029.5,409.3z"/>
	<circle class="st0" cx="1003.8" cy="407" r="2.3"/>
	<path class="st0" d="M978.2,409.3c1.3,0,2.3-1,2.3-2.3s-1-2.3-2.3-2.3s-2.3,1-2.3,2.3S976.9,409.3,978.2,409.3z"/>
	<circle class="st0" cx="952.6" cy="407" r="2.3"/>
	<ellipse class="st0" cx="926.9" cy="407" rx="2.3" ry="2.3"/>
	<circle class="st0" cx="901.3" cy="407" r="2.3"/>
	<circle class="st0" cx="875.7" cy="407" r="2.3"/>
	<path class="st0" d="M850.1,409.3c1.3,0,2.3-1,2.3-2.3s-1-2.3-2.3-2.3s-2.3,1-2.3,2.3S848.8,409.3,850.1,409.3z"/>
	<ellipse class="st0" cx="824.4" cy="407" rx="2.3" ry="2.3"/>
	<circle class="st0" cx="798.8" cy="407" r="2.3"/>
	<circle class="st0" cx="773.2" cy="407" r="2.3"/>
	<circle class="st0" cx="747.6" cy="407" r="2.3"/>
	<circle class="st0" cx="1080.7" cy="381.4" r="2.3"/>
	<ellipse class="st0" cx="1055.1" cy="381.4" rx="2.3" ry="2.3"/>
	<path class="st0" d="M1029.5,383.7c1.2,0,2.3-1,2.3-2.3c0-1.2-1-2.3-2.3-2.3s-2.3,1-2.3,2.3S1028.2,383.7,1029.5,383.7z"/>
	<ellipse class="st0" cx="1003.8" cy="381.4" rx="2.3" ry="2.3"/>
	<path class="st0" d="M978.2,383.7c1.3,0,2.3-1,2.3-2.3c0-1.2-1-2.3-2.3-2.3s-2.3,1-2.3,2.3S976.9,383.7,978.2,383.7z"/>
	<circle class="st0" cx="952.6" cy="381.4" r="2.3"/>
	<ellipse class="st0" cx="926.9" cy="381.4" rx="2.3" ry="2.3"/>
	<circle class="st0" cx="901.3" cy="381.4" r="2.3"/>
	<circle class="st0" cx="875.7" cy="381.4" r="2.3"/>
	<path class="st0" d="M850.1,383.7c1.3,0,2.3-1,2.3-2.3c0-1.2-1-2.3-2.3-2.3s-2.3,1-2.3,2.3S848.8,383.7,850.1,383.7z"/>
	<ellipse class="st0" cx="824.4" cy="381.4" rx="2.3" ry="2.3"/>
	<circle class="st0" cx="798.8" cy="381.4" r="2.3"/>
	<circle class="st0" cx="773.2" cy="381.4" r="2.3"/>
	<circle class="st0" cx="747.6" cy="381.4" r="2.3"/>
	<ellipse class="st0" cx="1080.7" cy="355.8" rx="2.3" ry="2.3"/>
	<ellipse class="st0" cx="1055.1" cy="355.8" rx="2.3" ry="2.3"/>
	<path class="st0" d="M1029.5,358.1c1.2,0,2.3-1,2.3-2.3s-1-2.3-2.3-2.3s-2.3,1-2.3,2.3C1027.2,357,1028.2,358.1,1029.5,358.1z"/>
	<ellipse class="st0" cx="1003.8" cy="355.8" rx="2.3" ry="2.3"/>
	<path class="st0" d="M978.2,358.1c1.3,0,2.3-1,2.3-2.3s-1-2.3-2.3-2.3s-2.3,1-2.3,2.3C975.9,357,976.9,358.1,978.2,358.1z"/>
	<ellipse class="st0" cx="952.6" cy="355.8" rx="2.3" ry="2.3"/>
	<circle class="st0" cx="926.9" cy="355.8" r="2.3"/>
	<circle class="st0" cx="901.3" cy="355.8" r="2.3"/>
	<circle class="st0" cx="875.7" cy="355.8" r="2.3"/>
	<path class="st0" d="M850.1,358.1c1.3,0,2.3-1,2.3-2.3s-1-2.3-2.3-2.3s-2.3,1-2.3,2.3C847.8,357,848.8,358.1,850.1,358.1z"/>
	<ellipse class="st0" cx="824.4" cy="355.8" rx="2.3" ry="2.3"/>
	<ellipse class="st0" cx="798.8" cy="355.8" rx="2.3" ry="2.3"/>
	<circle class="st0" cx="773.2" cy="355.8" r="2.3"/>
	<ellipse class="st0" cx="747.6" cy="355.8" rx="2.3" ry="2.3"/>
	<circle class="st0" cx="1080.7" cy="330.2" r="2.3"/>
	<ellipse class="st0" cx="1055.1" cy="330.2" rx="2.3" ry="2.3"/>
	<path class="st0" d="M1029.5,332.4c1.2,0,2.3-1,2.3-2.3s-1-2.3-2.3-2.3s-2.3,1-2.3,2.3S1028.2,332.4,1029.5,332.4z"/>
	<ellipse class="st0" cx="1003.8" cy="330.2" rx="2.3" ry="2.3"/>
	<path class="st0" d="M978.2,332.4c1.3,0,2.3-1,2.3-2.3s-1-2.3-2.3-2.3s-2.3,1-2.3,2.3S976.9,332.4,978.2,332.4z"/>
	<circle class="st0" cx="952.6" cy="330.2" r="2.3"/>
	<ellipse class="st0" cx="926.9" cy="330.2" rx="2.3" ry="2.3"/>
	<circle class="st0" cx="901.3" cy="330.2" r="2.3"/>
	<circle class="st0" cx="875.7" cy="330.2" r="2.3"/>
	<path class="st0" d="M850.1,332.4c1.3,0,2.3-1,2.3-2.3s-1-2.3-2.3-2.3s-2.3,1-2.3,2.3S848.8,332.4,850.1,332.4z"/>
	<ellipse class="st0" cx="824.4" cy="330.2" rx="2.3" ry="2.3"/>
	<circle class="st0" cx="798.8" cy="330.2" r="2.3"/>
	<circle class="st0" cx="773.2" cy="330.2" r="2.3"/>
	<circle class="st0" cx="747.6" cy="330.2" r="2.3"/>
	<circle class="st0" cx="1080.7" cy="304.5" r="2.3"/>
	<ellipse class="st0" cx="1055.1" cy="304.5" rx="2.3" ry="2.3"/>
	<path class="st0" d="M1029.5,306.8c1.2,0,2.3-1,2.3-2.3s-1-2.3-2.3-2.3s-2.3,1-2.3,2.3S1028.2,306.8,1029.5,306.8z"/>
	<ellipse class="st0" cx="1003.8" cy="304.5" rx="2.3" ry="2.3"/>
	<path class="st0" d="M978.2,306.8c1.3,0,2.3-1,2.3-2.3s-1-2.3-2.3-2.3s-2.3,1-2.3,2.3S976.9,306.8,978.2,306.8z"/>
	<circle class="st0" cx="952.6" cy="304.5" r="2.3"/>
	<ellipse class="st0" cx="926.9" cy="304.5" rx="2.3" ry="2.3"/>
	<circle class="st0" cx="901.3" cy="304.5" r="2.3"/>
	<circle class="st0" cx="875.7" cy="304.5" r="2.3"/>
	<path class="st0" d="M850.1,306.8c1.3,0,2.3-1,2.3-2.3s-1-2.3-2.3-2.3s-2.3,1-2.3,2.3S848.8,306.8,850.1,306.8z"/>
	<ellipse class="st0" cx="824.4" cy="304.5" rx="2.3" ry="2.3"/>
	<circle class="st0" cx="798.8" cy="304.5" r="2.3"/>
	<circle class="st0" cx="773.2" cy="304.5" r="2.3"/>
	<circle class="st0" cx="747.6" cy="304.5" r="2.3"/>
	<circle class="st0" cx="1080.7" cy="278.9" r="2.3"/>
	<ellipse class="st0" cx="1055.1" cy="278.9" rx="2.3" ry="2.3"/>
	<path class="st0" d="M1029.5,281.2c1.2,0,2.3-1,2.3-2.3s-1-2.3-2.3-2.3s-2.3,1-2.3,2.3S1028.2,281.2,1029.5,281.2z"/>
	<ellipse class="st0" cx="1003.8" cy="278.9" rx="2.3" ry="2.3"/>
	<path class="st0" d="M978.2,281.2c1.3,0,2.3-1,2.3-2.3s-1-2.3-2.3-2.3s-2.3,1-2.3,2.3S976.9,281.2,978.2,281.2z"/>
	<circle class="st0" cx="952.6" cy="278.9" r="2.3"/>
	<ellipse class="st0" cx="926.9" cy="278.9" rx="2.3" ry="2.3"/>
	<circle class="st0" cx="901.3" cy="278.9" r="2.3"/>
	<circle class="st0" cx="875.7" cy="278.9" r="2.3"/>
	<path class="st0" d="M850.1,281.2c1.3,0,2.3-1,2.3-2.3s-1-2.3-2.3-2.3s-2.3,1-2.3,2.3S848.8,281.2,850.1,281.2z"/>
	<ellipse class="st0" cx="824.4" cy="278.9" rx="2.3" ry="2.3"/>
	<circle class="st0" cx="798.8" cy="278.9" r="2.3"/>
	<circle class="st0" cx="773.2" cy="278.9" r="2.3"/>
	<circle class="st0" cx="747.6" cy="278.9" r="2.3"/>
	<circle class="st0" cx="1080.7" cy="253.3" r="2.3"/>
	<circle class="st0" cx="1055.1" cy="253.3" r="2.3"/>
	<path class="st0" d="M1029.5,255.5c1.2,0,2.3-1,2.3-2.3s-1-2.3-2.3-2.3s-2.3,1-2.3,2.3S1028.2,255.5,1029.5,255.5z"/>
	<circle class="st0" cx="1003.8" cy="253.3" r="2.3"/>
	<path class="st0" d="M978.2,255.5c1.3,0,2.3-1,2.3-2.3s-1-2.3-2.3-2.3s-2.3,1-2.3,2.3S976.9,255.5,978.2,255.5z"/>
	<circle class="st0" cx="952.6" cy="253.3" r="2.3"/>
	<ellipse class="st0" cx="926.9" cy="253.3" rx="2.3" ry="2.3"/>
	<circle class="st0" cx="901.3" cy="253.3" r="2.3"/>
	<circle class="st0" cx="875.7" cy="253.3" r="2.3"/>
	<path class="st0" d="M850.1,255.5c1.3,0,2.3-1,2.3-2.3s-1-2.3-2.3-2.3s-2.3,1-2.3,2.3S848.8,255.5,850.1,255.5z"/>
	<circle class="st0" cx="824.4" cy="253.3" r="2.3"/>
	<circle class="st0" cx="798.8" cy="253.3" r="2.3"/>
	<circle class="st0" cx="773.2" cy="253.3" r="2.3"/>
	<circle class="st0" cx="747.6" cy="253.3" r="2.3"/>
</g>
<g>
	<path class="st1" d="M523.7,537.5c0,14.6-11.9,26.4-26.4,26.4v-9.6c9.2,0,16.7-7.5,16.7-16.7s-7.5-16.7-16.7-16.7v-9.6
		C511.9,511.1,523.7,523,523.7,537.5z"/>
</g>
<g>
	<path class="st0" d="M647.5,181c-6.2,0-11.3-5.1-11.3-11.3h4.2c0,3.9,3.2,7.1,7.1,7.1c3.9,0,7.1-3.2,7.1-7.1h4.2
		C658.8,176,653.8,181.1,647.5,181z"/>
</g>
<g>
	<path class="st1" d="M194,469.7L194,469.7c3.6,3.6,5.4,8.6,5.2,13.8c-0.2,4,1.2,7.8,4,10.6l0,0c2.8,2.8,6.5,4.1,10.6,4
		c5.3-0.2,10.2,1.6,13.8,5.2l0,0c3.6,3.6,5.4,8.6,5.2,13.8c-0.1,1.2-1.1,2.1-2.2,2.1c-1.2-0.1-2.1-1.1-2.1-2.2c0.2-4-1.2-7.8-4-10.6
		l0,0c-2.8-2.8-6.5-4.1-10.6-4c-5.3,0.2-10.2-1.6-13.8-5.2l0,0c-3.6-3.6-5.4-8.6-5.2-13.8c0.2-4-1.2-7.8-4-10.6l0,0
		c-2.8-2.8-6.5-4.1-10.6-4c-5.3,0.2-10.2-1.6-13.8-5.2l0,0c-3.6-3.6-5.4-8.6-5.2-13.8c0.4-8.1-6.4-14.9-14.6-14.6
		c-5.3,0.2-10.2-1.6-13.8-5.2l0,0c-3.6-3.6-5.4-8.6-5.2-13.8c0.2-4-1.2-7.8-4-10.6l0,0c-2.8-2.8-6.5-4.1-10.6-4
		c-1.2,0.1-2.1-0.8-2.2-2.1c-0.1-1.2,0.8-2.1,2.1-2.2c5.3-0.2,10.2,1.6,13.8,5.2l0,0c3.6,3.6,5.5,8.5,5.2,13.8
		c-0.2,4,1.2,7.8,4,10.6l0,0c2.8,2.8,6.5,4.1,10.6,4c10.5-0.5,19.4,8.4,19,19c-0.2,4,1.2,7.8,4,10.6l0,0c2.8,2.8,6.5,4.1,10.6,4
		C185.6,464.3,190.4,466.1,194,469.7z"/>
</g>
<g>
	<polygon class="st1" points="305.6,855.2 371.5,918.5 353.6,932.7 305.6,886.6 257.4,932.7 239.5,918.4 	"/>
</g>
<rect x="78.9" y="63.1" class="st1" width="2.6" height="375.7"/>
</svg>
