<?xml version="1.0" encoding="utf-8"?>
<!-- Generator: Adobe Illustrator 20.0.0, SVG Export Plug-In . SVG Version: 6.00 Build 0)  -->
<svg version="1.1" id="Layer_1" xmlns="http://www.w3.org/2000/svg" xmlns:xlink="http://www.w3.org/1999/xlink" x="0px" y="0px"
	 width="1280px" height="1600px" viewBox="0 0 1280 1600" style="enable-background:new 0 0 1280 1600;" xml:space="preserve">
<style type="text/css">
	.st0{fill:url(#SVGID_1_);}
	.st1{fill:url(#SVGID_2_);}
	.st2{fill:url(#SVGID_3_);}
	.st3{fill:url(#SVGID_4_);}
</style>
<linearGradient id="SVGID_1_" gradientUnits="userSpaceOnUse" x1="800" y1="280" x2="1120" y2="280">
	<stop  offset="5.050505e-03" style="stop-color:#DCFFF4"/>
	<stop  offset="0.3656" style="stop-color:#91FFDE"/>
	<stop  offset="1" style="stop-color:#91FFDE"/>
</linearGradient>
<path class="st0" d="M960,200c44.1,0,80,35.9,80,80s-35.9,80-80,80s-80-35.9-80-80S915.9,200,960,200 M960,120
	c-88.4,0-160,71.6-160,160s71.6,160,160,160s160-71.6,160-160S1048.4,120,960,120L960,120z"/>
<linearGradient id="SVGID_2_" gradientUnits="userSpaceOnUse" x1="160.005" y1="639.9016" x2="480" y2="639.9016">
	<stop  offset="5.050505e-03" style="stop-color:#DCFFF4"/>
	<stop  offset="0.1873" style="stop-color:#91FFDE"/>
	<stop  offset="1" style="stop-color:#91FFDE"/>
</linearGradient>
<path class="st1" d="M240,719.8c0.1-44,35.9-79.8,80-79.8c44,0,79.9,35.8,80,79.8h80C479.9,631.5,408.3,560,320,560
	s-159.9,71.5-160,159.8H240z"/>
<linearGradient id="SVGID_3_" gradientUnits="userSpaceOnUse" x1="680" y1="800.0984" x2="841.8674" y2="800.0984">
	<stop  offset="0.2895" style="stop-color:#BFFFEC"/>
	<stop  offset="1" style="stop-color:#91FFDE"/>
</linearGradient>
<path class="st2" d="M680,880c0,0.1,0,0.1,0,0.2h80c0-0.1,0-0.1,0-0.2c0-44.1,35.9-80,80-80c0.6,0,1.2,0,1.9,0v-80
	c-0.6,0-1.2,0-1.9,0C751.6,720,680,791.6,680,880z"/>
<linearGradient id="SVGID_4_" gradientUnits="userSpaceOnUse" x1="440" y1="1519.7047" x2="601.8674" y2="1519.7047" gradientTransform="matrix(-6.123234e-17 -1 1 -6.123234e-17 -1238.7711 1721.0321)">
	<stop  offset="0.2895" style="stop-color:#BFFFEC"/>
	<stop  offset="1" style="stop-color:#91FFDE"/>
</linearGradient>
<path class="st3" d="M360.8,1281c0.1,0,0.1,0,0.2,0v-80c-0.1,0-0.1,0-0.2,0c-44.1,0-80-35.9-80-80c0-0.6,0-1.2,0-1.9h-80
	c0,0.6,0,1.2,0,1.9C200.8,1209.4,272.5,1281,360.8,1281z"/>
</svg>
