<svg id="theLogo" xmlns="http://www.w3.org/2000/svg" width="100" height="100" viewBox="0 0 100 100">
  <style>
    .outer{fill:#233141;} .inner{fill:#78909B;}
  </style>
  <path class="outer" d="M36.6 36.2h8.7L53.1 47V36.2h10.4v27.7h-8.8L47 53v10.8H36.6V36.2zM50 14.4c19.6 0 35.6 16 35.6 35.6S69.7 85.6 50 85.6c-19.6 0-35.6-16-35.6-35.6s16-35.6 35.6-35.6M50 5C25.2 5 5 25.1 5 50s20.1 45 45 45 45-20.1 45-45S74.9 5 50 5z"/>
  <path class="inner" d="M50.2 87.2c-20.4 0-37-16.6-37-37s16.6-37 37-37 37 16.6 37 37c0 20.5-16.6 37-37 37zm0-70.9c-18.7 0-34 15.2-34 34 0 18.7 15.2 34 34 34 18.7 0 34-15.2 34-34s-15.3-34-34-34z"/>
</svg>