<svg xmlns="http://www.w3.org/2000/svg" height="50" viewBox="0 0 50 50" width="50"><style type="text/css">  
	.st0{fill:#E6E6E6;}
</style><path class="st0" d="m25 49c-13.2 0-24-10.8-24-24s10.8-24 24-24 24 10.8 24 24-10.8 24-24 24zm0-45.3c-11.8 0-21.3 9.5-21.3 21.3s9.5 21.3 21.3 21.3 21.3-9.5 21.3-21.3-9.5-21.3-21.3-21.3z"/><rect transform="matrix(0.7288 -0.6847 0.6847 0.7288 -10.338 23.898)" height="34.1" width="2.7" y="8" x="23.7" class="st0"/><rect transform="matrix(0.6845 -0.729 0.729 0.6845 -10.337 26.114)" height="2.7" width="34.1" y="23.7" x="8" class="st0"/></svg>